<mxfile host="65bd71144e" scale="1" border="20">
    <diagram name="Страница — 1" id="GUEQATf3JZx84QbGBJQa">
        <mxGraphModel dx="558" dy="286" grid="0" gridSize="10" guides="1" tooltips="1" connect="1" arrows="1" fold="1" page="1" pageScale="1" pageWidth="827" pageHeight="1169" background="#ffffff" math="0" shadow="0">
            <root>
                <mxCell id="0"/>
                <mxCell id="1" parent="0"/>
                <mxCell id="C7jIR9H7Y7aet1fzJ8FQ-27" style="edgeStyle=orthogonalEdgeStyle;rounded=1;orthogonalLoop=1;jettySize=auto;html=1;entryX=0;entryY=0.5;entryDx=0;entryDy=0;fontColor=#333333;strokeColor=#333333;" parent="1" source="C7jIR9H7Y7aet1fzJ8FQ-1" target="C7jIR9H7Y7aet1fzJ8FQ-68" edge="1">
                    <mxGeometry relative="1" as="geometry">
                        <mxPoint x="109.99999999999932" y="310" as="targetPoint"/>
                    </mxGeometry>
                </mxCell>
                <mxCell id="C7jIR9H7Y7aet1fzJ8FQ-69" style="edgeStyle=orthogonalEdgeStyle;rounded=1;orthogonalLoop=1;jettySize=auto;html=1;entryX=0;entryY=0.5;entryDx=0;entryDy=0;fontColor=#333333;strokeColor=#333333;" parent="1" source="C7jIR9H7Y7aet1fzJ8FQ-1" target="C7jIR9H7Y7aet1fzJ8FQ-67" edge="1">
                    <mxGeometry relative="1" as="geometry"/>
                </mxCell>
                <mxCell id="C7jIR9H7Y7aet1fzJ8FQ-1" value="Actor" style="shape=umlActor;verticalLabelPosition=bottom;verticalAlign=top;html=1;outlineConnect=0;fontSize=10;fontColor=#333333;fillColor=#18141D;strokeColor=#333333;" parent="1" vertex="1">
                    <mxGeometry x="50" y="285" width="20" height="50" as="geometry"/>
                </mxCell>
                <mxCell id="C7jIR9H7Y7aet1fzJ8FQ-22" style="edgeStyle=orthogonalEdgeStyle;rounded=1;orthogonalLoop=1;jettySize=auto;html=1;fillColor=#fff2cc;strokeColor=#333333;gradientColor=#ffd966;exitX=1;exitY=0.5;exitDx=0;exitDy=0;fontColor=#333333;" parent="1" source="C7jIR9H7Y7aet1fzJ8FQ-68" target="C7jIR9H7Y7aet1fzJ8FQ-3" edge="1">
                    <mxGeometry relative="1" as="geometry">
                        <mxPoint x="200" y="310" as="sourcePoint"/>
                    </mxGeometry>
                </mxCell>
                <mxCell id="C7jIR9H7Y7aet1fzJ8FQ-19" style="edgeStyle=orthogonalEdgeStyle;rounded=1;orthogonalLoop=1;jettySize=auto;html=1;entryX=0;entryY=0.5;entryDx=0;entryDy=0;fillColor=#fff2cc;strokeColor=#333333;gradientColor=#ffd966;fontColor=#333333;" parent="1" source="C7jIR9H7Y7aet1fzJ8FQ-3" target="C7jIR9H7Y7aet1fzJ8FQ-4" edge="1">
                    <mxGeometry relative="1" as="geometry">
                        <Array as="points">
                            <mxPoint x="270" y="230"/>
                            <mxPoint x="314" y="230"/>
                            <mxPoint x="314" y="155"/>
                        </Array>
                    </mxGeometry>
                </mxCell>
                <mxCell id="C7jIR9H7Y7aet1fzJ8FQ-20" style="edgeStyle=orthogonalEdgeStyle;rounded=1;orthogonalLoop=1;jettySize=auto;html=1;entryX=0;entryY=0.5;entryDx=0;entryDy=0;fillColor=#fff2cc;strokeColor=#333333;gradientColor=#ffd966;fontColor=#333333;" parent="1" source="C7jIR9H7Y7aet1fzJ8FQ-3" target="C7jIR9H7Y7aet1fzJ8FQ-6" edge="1">
                    <mxGeometry relative="1" as="geometry">
                        <Array as="points">
                            <mxPoint x="270" y="1048"/>
                        </Array>
                    </mxGeometry>
                </mxCell>
                <mxCell id="C7jIR9H7Y7aet1fzJ8FQ-26" style="edgeStyle=orthogonalEdgeStyle;rounded=1;orthogonalLoop=1;jettySize=auto;html=1;entryX=0;entryY=0.5;entryDx=0;entryDy=0;fillColor=#fff2cc;strokeColor=#333333;gradientColor=#ffd966;fontColor=#333333;" parent="1" source="C7jIR9H7Y7aet1fzJ8FQ-3" target="C7jIR9H7Y7aet1fzJ8FQ-7" edge="1">
                    <mxGeometry relative="1" as="geometry">
                        <Array as="points">
                            <mxPoint x="340" y="310"/>
                            <mxPoint x="340" y="760"/>
                            <mxPoint x="414" y="760"/>
                        </Array>
                    </mxGeometry>
                </mxCell>
                <mxCell id="C7jIR9H7Y7aet1fzJ8FQ-3" value="Главный&lt;br style=&quot;font-size: 10px;&quot;&gt;экран" style="ellipse;whiteSpace=wrap;html=1;fontSize=10;fillColor=#fff2cc;strokeColor=#d6b656;gradientColor=#ffd966;fontColor=#333333;" parent="1" vertex="1">
                    <mxGeometry x="230" y="280" width="80" height="60" as="geometry"/>
                </mxCell>
                <mxCell id="C7jIR9H7Y7aet1fzJ8FQ-14" style="edgeStyle=orthogonalEdgeStyle;rounded=1;orthogonalLoop=1;jettySize=auto;html=1;entryX=0;entryY=0.5;entryDx=0;entryDy=0;fillColor=#fff2cc;strokeColor=#000000;gradientColor=#ffd966;fontColor=#333333;" parent="1" source="C7jIR9H7Y7aet1fzJ8FQ-4" target="C7jIR9H7Y7aet1fzJ8FQ-9" edge="1">
                    <mxGeometry relative="1" as="geometry">
                        <Array as="points">
                            <mxPoint x="440" y="155"/>
                            <mxPoint x="440" y="185"/>
                        </Array>
                    </mxGeometry>
                </mxCell>
                <mxCell id="C7jIR9H7Y7aet1fzJ8FQ-16" style="edgeStyle=orthogonalEdgeStyle;rounded=1;orthogonalLoop=1;jettySize=auto;html=1;entryX=0;entryY=0.5;entryDx=0;entryDy=0;fillColor=#fff2cc;strokeColor=#000000;gradientColor=#ffd966;fontColor=#333333;" parent="1" source="C7jIR9H7Y7aet1fzJ8FQ-4" target="C7jIR9H7Y7aet1fzJ8FQ-11" edge="1">
                    <mxGeometry relative="1" as="geometry">
                        <Array as="points">
                            <mxPoint x="440" y="155"/>
                            <mxPoint x="440" y="497"/>
                        </Array>
                    </mxGeometry>
                </mxCell>
                <mxCell id="C7jIR9H7Y7aet1fzJ8FQ-18" style="edgeStyle=orthogonalEdgeStyle;rounded=1;orthogonalLoop=1;jettySize=auto;html=1;entryX=0;entryY=0.5;entryDx=0;entryDy=0;fillColor=#fff2cc;strokeColor=#333333;gradientColor=#ffd966;fontColor=#333333;" parent="1" source="C7jIR9H7Y7aet1fzJ8FQ-4" target="C7jIR9H7Y7aet1fzJ8FQ-48" edge="1">
                    <mxGeometry relative="1" as="geometry">
                        <Array as="points">
                            <mxPoint x="440" y="155"/>
                            <mxPoint x="440" y="640"/>
                        </Array>
                    </mxGeometry>
                </mxCell>
                <mxCell id="C7jIR9H7Y7aet1fzJ8FQ-25" style="edgeStyle=orthogonalEdgeStyle;rounded=1;orthogonalLoop=1;jettySize=auto;html=1;entryX=0;entryY=0.5;entryDx=0;entryDy=0;fillColor=#fff2cc;strokeColor=#333333;gradientColor=#ffd966;fontColor=#333333;" parent="1" source="C7jIR9H7Y7aet1fzJ8FQ-4" target="C7jIR9H7Y7aet1fzJ8FQ-10" edge="1">
                    <mxGeometry relative="1" as="geometry">
                        <Array as="points">
                            <mxPoint x="440" y="155"/>
                            <mxPoint x="440" y="311"/>
                        </Array>
                    </mxGeometry>
                </mxCell>
                <mxCell id="C7jIR9H7Y7aet1fzJ8FQ-34" style="edgeStyle=orthogonalEdgeStyle;rounded=1;orthogonalLoop=1;jettySize=auto;html=1;entryX=0;entryY=0.5;entryDx=0;entryDy=0;fontColor=#333333;strokeColor=#333333;" parent="1" source="C7jIR9H7Y7aet1fzJ8FQ-4" target="C7jIR9H7Y7aet1fzJ8FQ-33" edge="1">
                    <mxGeometry relative="1" as="geometry"/>
                </mxCell>
                <mxCell id="C7jIR9H7Y7aet1fzJ8FQ-4" value="Меню" style="ellipse;whiteSpace=wrap;html=1;fontSize=10;fillColor=#fff2cc;strokeColor=#d6b656;gradientColor=#ffd966;fontColor=#333333;" parent="1" vertex="1">
                    <mxGeometry x="334" y="130" width="80" height="50" as="geometry"/>
                </mxCell>
                <mxCell id="C7jIR9H7Y7aet1fzJ8FQ-6" value="Блок&lt;br style=&quot;font-size: 10px;&quot;&gt;информации&lt;br&gt;&lt;ul&gt;&lt;li style=&quot;text-align: left;&quot;&gt;&lt;span style=&quot;font-size: 8px; background-color: initial;&quot;&gt;уровень заряда&lt;/span&gt;&lt;/li&gt;&lt;li style=&quot;text-align: left;&quot;&gt;&lt;span style=&quot;font-size: 8px; background-color: initial;&quot;&gt;расчетная площадь помещения&lt;/span&gt;&lt;/li&gt;&lt;li style=&quot;text-align: left;&quot;&gt;&lt;span style=&quot;font-size: 8px; background-color: initial;&quot;&gt;расчетное время уборки&lt;/span&gt;&lt;/li&gt;&lt;/ul&gt;" style="ellipse;whiteSpace=wrap;html=1;fontSize=10;fillColor=#fff2cc;strokeColor=#d6b656;gradientColor=#ffd966;fontColor=#333333;" parent="1" vertex="1">
                    <mxGeometry x="441" y="993" width="189" height="110" as="geometry"/>
                </mxCell>
                <mxCell id="C7jIR9H7Y7aet1fzJ8FQ-59" style="edgeStyle=orthogonalEdgeStyle;rounded=1;orthogonalLoop=1;jettySize=auto;html=1;entryX=0;entryY=0.5;entryDx=0;entryDy=0;exitX=0.5;exitY=0;exitDx=0;exitDy=0;fontColor=#333333;strokeColor=#333333;" parent="1" source="C7jIR9H7Y7aet1fzJ8FQ-7" target="C7jIR9H7Y7aet1fzJ8FQ-56" edge="1">
                    <mxGeometry relative="1" as="geometry"/>
                </mxCell>
                <mxCell id="C7jIR9H7Y7aet1fzJ8FQ-61" style="edgeStyle=orthogonalEdgeStyle;rounded=1;orthogonalLoop=1;jettySize=auto;html=1;entryX=0.009;entryY=0.523;entryDx=0;entryDy=0;entryPerimeter=0;fontColor=#333333;strokeColor=#333333;" parent="1" source="C7jIR9H7Y7aet1fzJ8FQ-7" target="C7jIR9H7Y7aet1fzJ8FQ-57" edge="1">
                    <mxGeometry relative="1" as="geometry">
                        <Array as="points">
                            <mxPoint x="560" y="768"/>
                        </Array>
                    </mxGeometry>
                </mxCell>
                <mxCell id="C7jIR9H7Y7aet1fzJ8FQ-62" style="edgeStyle=orthogonalEdgeStyle;rounded=1;orthogonalLoop=1;jettySize=auto;html=1;entryX=0;entryY=0.5;entryDx=0;entryDy=0;exitX=0.5;exitY=1;exitDx=0;exitDy=0;fontColor=#333333;strokeColor=#333333;" parent="1" source="C7jIR9H7Y7aet1fzJ8FQ-7" target="C7jIR9H7Y7aet1fzJ8FQ-58" edge="1">
                    <mxGeometry relative="1" as="geometry"/>
                </mxCell>
                <mxCell id="5" style="edgeStyle=none;html=1;entryX=0;entryY=0.5;entryDx=0;entryDy=0;strokeColor=#333333;fontColor=#333333;" edge="1" parent="1" source="C7jIR9H7Y7aet1fzJ8FQ-7" target="4">
                    <mxGeometry relative="1" as="geometry">
                        <Array as="points">
                            <mxPoint x="390" y="822"/>
                        </Array>
                    </mxGeometry>
                </mxCell>
                <mxCell id="C7jIR9H7Y7aet1fzJ8FQ-7" value="Панель&lt;br&gt;управления" style="ellipse;whiteSpace=wrap;html=1;fontSize=10;fillColor=#fff2cc;strokeColor=#d6b656;gradientColor=#ffd966;fontColor=#333333;" parent="1" vertex="1">
                    <mxGeometry x="350" y="730" width="80" height="50" as="geometry"/>
                </mxCell>
                <mxCell id="C7jIR9H7Y7aet1fzJ8FQ-36" style="edgeStyle=orthogonalEdgeStyle;rounded=1;orthogonalLoop=1;jettySize=auto;html=1;entryX=0;entryY=0.5;entryDx=0;entryDy=0;exitX=0.5;exitY=0;exitDx=0;exitDy=0;fontColor=#333333;strokeColor=#333333;" parent="1" source="C7jIR9H7Y7aet1fzJ8FQ-9" target="C7jIR9H7Y7aet1fzJ8FQ-28" edge="1">
                    <mxGeometry relative="1" as="geometry"/>
                </mxCell>
                <mxCell id="C7jIR9H7Y7aet1fzJ8FQ-37" style="edgeStyle=orthogonalEdgeStyle;rounded=1;orthogonalLoop=1;jettySize=auto;html=1;entryX=0;entryY=0.5;entryDx=0;entryDy=0;exitX=0.5;exitY=0;exitDx=0;exitDy=0;fontColor=#333333;strokeColor=#333333;" parent="1" source="C7jIR9H7Y7aet1fzJ8FQ-9" target="C7jIR9H7Y7aet1fzJ8FQ-31" edge="1">
                    <mxGeometry relative="1" as="geometry">
                        <Array as="points">
                            <mxPoint x="500" y="140"/>
                            <mxPoint x="540" y="140"/>
                            <mxPoint x="540" y="160"/>
                        </Array>
                    </mxGeometry>
                </mxCell>
                <mxCell id="C7jIR9H7Y7aet1fzJ8FQ-38" style="edgeStyle=orthogonalEdgeStyle;orthogonalLoop=1;jettySize=auto;html=1;entryX=0;entryY=0.5;entryDx=0;entryDy=0;exitX=0.5;exitY=1;exitDx=0;exitDy=0;rounded=1;fontColor=#333333;strokeColor=#333333;" parent="1" source="C7jIR9H7Y7aet1fzJ8FQ-9" target="C7jIR9H7Y7aet1fzJ8FQ-32" edge="1">
                    <mxGeometry relative="1" as="geometry">
                        <Array as="points">
                            <mxPoint x="500" y="230"/>
                            <mxPoint x="540" y="230"/>
                            <mxPoint x="540" y="210"/>
                        </Array>
                    </mxGeometry>
                </mxCell>
                <mxCell id="C7jIR9H7Y7aet1fzJ8FQ-9" value="Управление&lt;br&gt;помещениями" style="ellipse;whiteSpace=wrap;html=1;fontSize=10;fillColor=#fff2cc;strokeColor=#d6b656;gradientColor=#ffd966;fontColor=#333333;" parent="1" vertex="1">
                    <mxGeometry x="460" y="160" width="80" height="50" as="geometry"/>
                </mxCell>
                <mxCell id="C7jIR9H7Y7aet1fzJ8FQ-43" style="edgeStyle=orthogonalEdgeStyle;rounded=1;orthogonalLoop=1;jettySize=auto;html=1;entryX=0;entryY=0.5;entryDx=0;entryDy=0;exitX=0.5;exitY=0;exitDx=0;exitDy=0;fontColor=#333333;strokeColor=#333333;" parent="1" source="C7jIR9H7Y7aet1fzJ8FQ-10" target="C7jIR9H7Y7aet1fzJ8FQ-39" edge="1">
                    <mxGeometry relative="1" as="geometry">
                        <Array as="points">
                            <mxPoint x="500" y="276"/>
                        </Array>
                    </mxGeometry>
                </mxCell>
                <mxCell id="C7jIR9H7Y7aet1fzJ8FQ-44" style="edgeStyle=orthogonalEdgeStyle;rounded=1;orthogonalLoop=1;jettySize=auto;html=1;entryX=0;entryY=0.5;entryDx=0;entryDy=0;fontColor=#333333;strokeColor=#333333;" parent="1" source="C7jIR9H7Y7aet1fzJ8FQ-10" target="C7jIR9H7Y7aet1fzJ8FQ-40" edge="1">
                    <mxGeometry relative="1" as="geometry">
                        <Array as="points">
                            <mxPoint x="550" y="326"/>
                            <mxPoint x="550" y="326"/>
                        </Array>
                    </mxGeometry>
                </mxCell>
                <mxCell id="C7jIR9H7Y7aet1fzJ8FQ-45" style="edgeStyle=orthogonalEdgeStyle;rounded=1;orthogonalLoop=1;jettySize=auto;html=1;entryX=0;entryY=0.5;entryDx=0;entryDy=0;exitX=0.5;exitY=1;exitDx=0;exitDy=0;fontColor=#333333;strokeColor=#333333;" parent="1" source="C7jIR9H7Y7aet1fzJ8FQ-10" target="C7jIR9H7Y7aet1fzJ8FQ-41" edge="1">
                    <mxGeometry relative="1" as="geometry">
                        <mxPoint x="480" y="321" as="sourcePoint"/>
                        <mxPoint x="499.9999999999966" y="386" as="targetPoint"/>
                        <Array as="points">
                            <mxPoint x="500" y="376"/>
                        </Array>
                    </mxGeometry>
                </mxCell>
                <mxCell id="C7jIR9H7Y7aet1fzJ8FQ-10" value="Расписание работы" style="ellipse;whiteSpace=wrap;html=1;fontSize=10;fillColor=#fff2cc;strokeColor=#d6b656;gradientColor=#ffd966;fontColor=#333333;" parent="1" vertex="1">
                    <mxGeometry x="460" y="286" width="80" height="50" as="geometry"/>
                </mxCell>
                <mxCell id="C7jIR9H7Y7aet1fzJ8FQ-53" style="edgeStyle=orthogonalEdgeStyle;rounded=1;orthogonalLoop=1;jettySize=auto;html=1;entryX=0;entryY=0.5;entryDx=0;entryDy=0;fontColor=#333333;strokeColor=#333333;" parent="1" source="C7jIR9H7Y7aet1fzJ8FQ-11" target="C7jIR9H7Y7aet1fzJ8FQ-51" edge="1">
                    <mxGeometry relative="1" as="geometry"/>
                </mxCell>
                <mxCell id="C7jIR9H7Y7aet1fzJ8FQ-54" style="edgeStyle=orthogonalEdgeStyle;rounded=1;orthogonalLoop=1;jettySize=auto;html=1;entryX=0;entryY=0.5;entryDx=0;entryDy=0;exitX=0.5;exitY=0;exitDx=0;exitDy=0;fontColor=#333333;strokeColor=#333333;" parent="1" source="C7jIR9H7Y7aet1fzJ8FQ-11" target="C7jIR9H7Y7aet1fzJ8FQ-49" edge="1">
                    <mxGeometry relative="1" as="geometry"/>
                </mxCell>
                <mxCell id="C7jIR9H7Y7aet1fzJ8FQ-55" style="edgeStyle=orthogonalEdgeStyle;rounded=1;orthogonalLoop=1;jettySize=auto;html=1;entryX=0;entryY=0.5;entryDx=0;entryDy=0;exitX=0.5;exitY=1;exitDx=0;exitDy=0;fontColor=#333333;strokeColor=#333333;" parent="1" source="C7jIR9H7Y7aet1fzJ8FQ-11" target="C7jIR9H7Y7aet1fzJ8FQ-52" edge="1">
                    <mxGeometry relative="1" as="geometry">
                        <Array as="points">
                            <mxPoint x="500" y="556"/>
                        </Array>
                    </mxGeometry>
                </mxCell>
                <mxCell id="C7jIR9H7Y7aet1fzJ8FQ-11" value="Сервисное обслуживание" style="ellipse;whiteSpace=wrap;html=1;fontSize=10;fillColor=#fff2cc;strokeColor=#d6b656;gradientColor=#ffd966;fontColor=#333333;" parent="1" vertex="1">
                    <mxGeometry x="460" y="472" width="80" height="50" as="geometry"/>
                </mxCell>
                <mxCell id="C7jIR9H7Y7aet1fzJ8FQ-28" value="Добавить&lt;br style=&quot;font-size: 8px;&quot;&gt;помещение" style="ellipse;whiteSpace=wrap;html=1;fontSize=8;fillColor=#fff2cc;strokeColor=#d6b656;gradientColor=#ffd966;fontColor=#333333;" parent="1" vertex="1">
                    <mxGeometry x="560" y="90" width="70" height="40" as="geometry"/>
                </mxCell>
                <mxCell id="C7jIR9H7Y7aet1fzJ8FQ-31" value="Удалить&lt;br&gt;помещение" style="ellipse;whiteSpace=wrap;html=1;fontSize=8;fillColor=#fff2cc;strokeColor=#d6b656;gradientColor=#ffd966;fontColor=#333333;" parent="1" vertex="1">
                    <mxGeometry x="560" y="140" width="70" height="40" as="geometry"/>
                </mxCell>
                <mxCell id="C7jIR9H7Y7aet1fzJ8FQ-32" value="Изменить&lt;br&gt;помещение" style="ellipse;whiteSpace=wrap;html=1;fontSize=8;fillColor=#fff2cc;strokeColor=#d6b656;gradientColor=#ffd966;fontColor=#333333;" parent="1" vertex="1">
                    <mxGeometry x="560" y="190" width="70" height="40" as="geometry"/>
                </mxCell>
                <mxCell id="C7jIR9H7Y7aet1fzJ8FQ-33" value="Подключить&lt;br&gt;робота" style="ellipse;whiteSpace=wrap;html=1;fontSize=8;fillColor=#fff2cc;strokeColor=#d6b656;gradientColor=#ffd966;fontColor=#333333;" parent="1" vertex="1">
                    <mxGeometry x="560" y="40" width="70" height="40" as="geometry"/>
                </mxCell>
                <mxCell id="C7jIR9H7Y7aet1fzJ8FQ-39" value="Добавить&lt;br style=&quot;font-size: 8px;&quot;&gt;задание" style="ellipse;whiteSpace=wrap;html=1;fontSize=8;fillColor=#fff2cc;strokeColor=#d6b656;gradientColor=#ffd966;fontColor=#333333;" parent="1" vertex="1">
                    <mxGeometry x="560" y="256" width="70" height="40" as="geometry"/>
                </mxCell>
                <mxCell id="C7jIR9H7Y7aet1fzJ8FQ-40" value="Удалить&lt;br&gt;задание" style="ellipse;whiteSpace=wrap;html=1;fontSize=8;fillColor=#fff2cc;strokeColor=#d6b656;gradientColor=#ffd966;fontColor=#333333;" parent="1" vertex="1">
                    <mxGeometry x="560" y="306" width="70" height="40" as="geometry"/>
                </mxCell>
                <mxCell id="C7jIR9H7Y7aet1fzJ8FQ-41" value="Изменить&lt;br&gt;задание" style="ellipse;whiteSpace=wrap;html=1;fontSize=8;fillColor=#fff2cc;strokeColor=#d6b656;gradientColor=#ffd966;fontColor=#333333;" parent="1" vertex="1">
                    <mxGeometry x="560" y="356" width="70" height="40" as="geometry"/>
                </mxCell>
                <mxCell id="C7jIR9H7Y7aet1fzJ8FQ-48" value="Статистика&amp;nbsp;&lt;br&gt;и история&lt;br&gt;уброк" style="ellipse;whiteSpace=wrap;html=1;fontSize=8;fillColor=#fff2cc;strokeColor=#d6b656;gradientColor=#ffd966;fontColor=#333333;" parent="1" vertex="1">
                    <mxGeometry x="560" y="620" width="70" height="40" as="geometry"/>
                </mxCell>
                <mxCell id="C7jIR9H7Y7aet1fzJ8FQ-49" value="Сброс&lt;br&gt;счетчика&amp;nbsp;&lt;br&gt;фильтра" style="ellipse;whiteSpace=wrap;html=1;fontSize=8;fillColor=#fff2cc;strokeColor=#d6b656;gradientColor=#ffd966;fontColor=#333333;" parent="1" vertex="1">
                    <mxGeometry x="560" y="420" width="70" height="40" as="geometry"/>
                </mxCell>
                <mxCell id="C7jIR9H7Y7aet1fzJ8FQ-51" value="Сброс&lt;br&gt;счетчика&lt;br&gt;щетки" style="ellipse;whiteSpace=wrap;html=1;fontSize=8;fillColor=#fff2cc;strokeColor=#d6b656;gradientColor=#ffd966;fontColor=#333333;" parent="1" vertex="1">
                    <mxGeometry x="560" y="477" width="70" height="40" as="geometry"/>
                </mxCell>
                <mxCell id="C7jIR9H7Y7aet1fzJ8FQ-52" value="Очистка&lt;br&gt;датчиков" style="ellipse;whiteSpace=wrap;html=1;fontSize=8;fillColor=#fff2cc;strokeColor=#d6b656;gradientColor=#ffd966;fontColor=#333333;" parent="1" vertex="1">
                    <mxGeometry x="560" y="536" width="70" height="40" as="geometry"/>
                </mxCell>
                <mxCell id="C7jIR9H7Y7aet1fzJ8FQ-56" value="Старт" style="ellipse;whiteSpace=wrap;html=1;fontSize=8;fillColor=#fff2cc;strokeColor=#d6b656;gradientColor=#ffd966;fontColor=#333333;" parent="1" vertex="1">
                    <mxGeometry x="560" y="690" width="70" height="40" as="geometry"/>
                </mxCell>
                <mxCell id="C7jIR9H7Y7aet1fzJ8FQ-57" value="Пауза/Продолжить" style="ellipse;whiteSpace=wrap;html=1;fontSize=8;fillColor=#fff2cc;strokeColor=#d6b656;gradientColor=#ffd966;fontColor=#333333;" parent="1" vertex="1">
                    <mxGeometry x="560" y="747" width="70" height="40" as="geometry"/>
                </mxCell>
                <mxCell id="C7jIR9H7Y7aet1fzJ8FQ-65" style="edgeStyle=orthogonalEdgeStyle;rounded=1;orthogonalLoop=1;jettySize=auto;html=1;entryX=0;entryY=0.5;entryDx=0;entryDy=0;exitX=0.5;exitY=0;exitDx=0;exitDy=0;fontColor=#333333;strokeColor=#333333;" parent="1" source="C7jIR9H7Y7aet1fzJ8FQ-58" target="C7jIR9H7Y7aet1fzJ8FQ-63" edge="1">
                    <mxGeometry relative="1" as="geometry">
                        <Array as="points">
                            <mxPoint x="495" y="881"/>
                        </Array>
                    </mxGeometry>
                </mxCell>
                <mxCell id="C7jIR9H7Y7aet1fzJ8FQ-66" style="edgeStyle=orthogonalEdgeStyle;rounded=1;orthogonalLoop=1;jettySize=auto;html=1;entryX=-0.042;entryY=0.49;entryDx=0;entryDy=0;entryPerimeter=0;exitX=0.5;exitY=1;exitDx=0;exitDy=0;fontColor=#333333;strokeColor=#333333;" parent="1" source="C7jIR9H7Y7aet1fzJ8FQ-58" target="C7jIR9H7Y7aet1fzJ8FQ-64" edge="1">
                    <mxGeometry relative="1" as="geometry">
                        <Array as="points">
                            <mxPoint x="495" y="941"/>
                            <mxPoint x="550" y="941"/>
                        </Array>
                    </mxGeometry>
                </mxCell>
                <mxCell id="C7jIR9H7Y7aet1fzJ8FQ-58" value="Выбор&lt;br&gt;программы&lt;br&gt;уборки" style="ellipse;whiteSpace=wrap;html=1;fontSize=8;fillColor=#fff2cc;strokeColor=#d6b656;gradientColor=#ffd966;fontColor=#333333;" parent="1" vertex="1">
                    <mxGeometry x="460" y="891" width="70" height="40" as="geometry"/>
                </mxCell>
                <mxCell id="C7jIR9H7Y7aet1fzJ8FQ-63" value="Старт&lt;br&gt;сухой&lt;br&gt;уборки" style="ellipse;whiteSpace=wrap;html=1;fontSize=8;fillColor=#fff2cc;strokeColor=#d6b656;gradientColor=#ffd966;fontColor=#333333;" parent="1" vertex="1">
                    <mxGeometry x="560" y="861" width="70" height="40" as="geometry"/>
                </mxCell>
                <mxCell id="C7jIR9H7Y7aet1fzJ8FQ-64" value="Старт&lt;br&gt;влажной&lt;br&gt;уборки" style="ellipse;whiteSpace=wrap;html=1;fontSize=8;fillColor=#fff2cc;strokeColor=#d6b656;gradientColor=#ffd966;fontColor=#333333;" parent="1" vertex="1">
                    <mxGeometry x="560" y="921" width="70" height="40" as="geometry"/>
                </mxCell>
                <mxCell id="C7jIR9H7Y7aet1fzJ8FQ-67" value="Регистрация" style="ellipse;whiteSpace=wrap;html=1;fontSize=10;fillColor=#fff2cc;strokeColor=#d6b656;gradientColor=#ffd966;fontColor=#333333;" parent="1" vertex="1">
                    <mxGeometry x="110" y="210" width="80" height="60" as="geometry"/>
                </mxCell>
                <mxCell id="C7jIR9H7Y7aet1fzJ8FQ-68" value="Авторизация" style="ellipse;whiteSpace=wrap;html=1;fontSize=10;fillColor=#fff2cc;strokeColor=#d6b656;gradientColor=#ffd966;fontColor=#333333;" parent="1" vertex="1">
                    <mxGeometry x="110" y="280" width="80" height="60" as="geometry"/>
                </mxCell>
                <mxCell id="4" value="Возврат&lt;br&gt;на&lt;br&gt;докстанцию" style="ellipse;whiteSpace=wrap;html=1;fontSize=8;fillColor=#fff2cc;strokeColor=#d6b656;gradientColor=#ffd966;fontColor=#333333;" vertex="1" parent="1">
                    <mxGeometry x="560" y="802" width="70" height="40" as="geometry"/>
                </mxCell>
            </root>
        </mxGraphModel>
    </diagram>
</mxfile>